<svg width="1440" height="624" viewBox="0 0 1440 624" fill="none" xmlns="http://www.w3.org/2000/svg">
<path d="M-90.4668 275C25.1782 257.666 192.701 227.707 349.953 347.5C576.396 520 925.928 556 1126.4 427C1337.62 291.088 1430.75 235.5 1555.92 262" stroke="#9BDAF9"/>
<path d="M-145 147.76C-29.3551 120.696 138.168 173.918 295.42 360.961C521.863 630.302 871.394 686.512 1071.87 485.092C1283.08 272.88 1359.08 177.909 1501.38 147.462" stroke="#9BDAF9"/>
<path d="M-4.77173 70.5382C110.873 43.474 270.491 93 379.038 194.499C637.225 435.923 955.012 520.05 1155.49 318.63C1366.7 106.418 1442.69 31.4472 1585 1" stroke="#9BDAF9"/>
<ellipse opacity="0.5" cx="331.776" cy="155" rx="10.3873" ry="10" fill="#6C4BF2"/>
<ellipse cx="213.361" cy="514" rx="5.19364" ry="5" fill="#9BDAF9"/>
<ellipse cx="1152.37" cy="589" rx="5.19364" ry="5" fill="#9BDAF9"/>
<ellipse cx="810.629" cy="369" rx="5.19364" ry="5" fill="#9BDAF9"/>
<ellipse opacity="0.5" cx="422.145" cy="564" rx="5.19364" ry="5" fill="#6C4BF2"/>
<ellipse opacity="0.5" cx="612.232" cy="416" rx="5.19364" ry="5" fill="#6C4BF2"/>
<ellipse opacity="0.5" cx="772.196" cy="554" rx="5.19364" ry="5" fill="#6C4BF2"/>
<ellipse opacity="0.5" cx="1331.03" cy="192" rx="10.3873" ry="10" fill="#6C4BF2"/>
<ellipse opacity="0.5" cx="903.076" cy="614" rx="10.3873" ry="10" fill="#6C4BF2"/>
<ellipse opacity="0.5" cx="106.372" cy="390" rx="10.3873" ry="10" fill="#6C4BF2"/>
<ellipse cx="495.895" cy="431" rx="10.3873" ry="10" fill="#9BDAF9"/>
<ellipse cx="1350.77" cy="590" rx="10.3873" ry="10" fill="#9BDAF9"/>
<path d="M383.667 397.304C378.141 418.484 365.048 426.302 347.106 421.732C329.164 417.162 317.496 393.094 323.022 371.914C328.548 350.734 350.886 350.515 359.904 352.812C386.266 359.527 387.501 379.923 383.667 397.304Z" fill="url(#paint0_linear)"/>
<path d="M378.074 396.246C370.86 423.894 356.934 434.906 338.993 430.336C321.051 425.766 310.958 395.657 318.172 368.008C325.386 340.36 348.165 338.448 357.183 340.745C383.545 347.46 383.28 373.607 378.074 396.246Z" fill="url(#paint1_linear)"/>
<path d="M351.442 386.97C347.912 405.351 336.201 410.846 328.53 409.837C314.574 408 316.591 402.852 318.92 384.662C321.248 366.472 326.753 351.945 340.709 353.782C351.361 355.184 353.77 368.78 351.442 386.97Z" fill="url(#paint2_linear)"/>
<mask id="mask0" mask-type="alpha" maskUnits="userSpaceOnUse" x="317" y="353" width="36" height="57">
<path d="M351.442 386.97C347.912 405.351 336.201 410.846 328.53 409.837C314.574 408 316.591 402.852 318.92 384.662C321.248 366.472 326.753 351.945 340.709 353.782C351.361 355.184 353.77 368.78 351.442 386.97Z" fill="url(#paint3_linear)"/>
</mask>
<g mask="url(#mask0)">
<path d="M360.564 391.131C357.034 409.512 345.323 415.007 337.652 413.998C323.696 412.161 325.713 407.013 328.042 388.823C330.37 370.633 335.875 356.107 349.831 357.943C360.483 359.345 362.892 372.942 360.564 391.131Z" fill="url(#paint4_linear)"/>
</g>
<path d="M267.515 429.661C289.552 449.32 312.395 453.787 329.89 435.489C349.128 415.366 339.6 384.524 317.563 364.866C295.526 345.207 271.48 343.785 252.241 363.908C233.002 384.031 245.478 410.002 267.515 429.661Z" fill="url(#paint5_linear)"/>
<path d="M266.415 428.68C283.858 444.241 301.476 448.263 314.334 434.814C328.475 420.023 322.827 398.313 305.383 382.752C287.94 367.19 266.943 363.433 252.803 378.223C238.662 393.014 248.971 413.119 266.415 428.68Z" fill="url(#paint6_linear)"/>
<path d="M259.739 431.308C274.096 444.116 290.859 446.088 300.546 435.955C311.199 424.813 306.465 406.511 292.108 393.704C277.752 380.896 260.315 378.22 249.662 389.362C239.009 400.504 245.382 418.501 259.739 431.308Z" fill="url(#paint7_linear)"/>
<path fill-rule="evenodd" clip-rule="evenodd" d="M366.887 342.572C337.77 275.18 285.314 259.137 257.229 270.424C198.29 294.108 231.992 376.993 236.171 381.031C240.349 385.07 246.058 381.277 248.192 377.985C249.899 375.352 252.061 370.688 252.928 368.684C240.556 344.826 223.122 297.512 253.206 287.513C289.005 275.615 322.963 300.273 344.353 340.71C349.453 339.669 354.115 339.964 357.183 340.745C361.074 341.736 364.385 343.151 367.185 344.915C367.149 344.21 367.052 343.431 366.887 342.572Z" fill="url(#paint8_linear)"/>
<path fill-rule="evenodd" clip-rule="evenodd" d="M361.139 341.968C344.144 300.575 303.034 263.336 263.072 273.889C250.411 277.232 234.996 290.135 237.075 308.409C237.233 300.929 243.281 287.522 265.596 285.436C285.497 283.576 317.059 290.598 343.543 340.886C348.957 339.64 353.953 339.923 357.183 340.745C358.575 341.1 359.893 341.509 361.139 341.968Z" fill="url(#paint9_linear)"/>
<path d="M253.367 391.541L248.192 377.985C245.825 377.705 243.076 379.383 243.149 381.549C245.8 390.861 246.923 392.422 248.201 394.782L253.367 391.541Z" fill="url(#paint10_linear)"/>
<path d="M259.337 431.848C273.398 444.392 289.211 446.954 297.826 437.944C307.299 428.036 302.008 410.797 287.947 398.254C273.886 385.71 257.057 383.26 247.584 393.168C238.111 403.076 245.276 419.305 259.337 431.848Z" fill="url(#paint11_linear)"/>
<path d="M242.2 380.05C247.201 376.574 247.417 371.679 246.9 369.666C233.319 346.589 214.823 295.113 249.486 273.822C192.138 304.169 233.626 378.621 235.592 380.5C237.558 382.38 239.223 382.119 242.2 380.05Z" fill="url(#paint12_linear)"/>
<path opacity="0.5" d="M657.6 477.754L657.122 480.399L650.092 479.22L649.284 483.683L654.917 484.628L654.456 487.179L648.822 486.234L647.553 493.248L644.216 492.688L647.233 476.015L657.6 477.754ZM659.505 477.903C659.602 477.367 659.869 476.966 660.308 476.699C660.749 476.416 661.278 476.326 661.893 476.43C662.509 476.533 662.974 476.789 663.29 477.199C663.609 477.594 663.72 478.058 663.623 478.594C663.529 479.113 663.262 479.514 662.82 479.797C662.382 480.064 661.855 480.146 661.239 480.043C660.624 479.94 660.157 479.691 659.838 479.297C659.522 478.887 659.411 478.422 659.505 477.903ZM662.541 482.281L660.174 495.365L656.836 494.805L659.204 481.721L662.541 482.281ZM671.484 483.611C673.173 483.894 674.494 484.586 675.449 485.687C676.42 486.791 676.905 488.154 676.904 489.776L673.378 489.184C673.361 488.468 673.136 487.87 672.702 487.392C672.271 486.898 671.669 486.586 670.896 486.456C670.012 486.308 669.211 486.514 668.492 487.075C667.791 487.623 667.327 488.526 667.099 489.786C666.871 491.045 666.989 492.055 667.453 492.814C667.936 493.56 668.619 494.007 669.503 494.155C670.276 494.285 670.951 494.195 671.527 493.887C672.106 493.562 672.529 493.065 672.796 492.396L676.323 492.988C675.754 494.514 674.819 495.639 673.518 496.362C672.232 497.087 670.745 497.308 669.057 497.025C667.778 496.81 666.691 496.352 665.793 495.65C664.899 494.932 664.267 494.023 663.897 492.923C663.527 491.823 663.466 490.588 663.714 489.218C663.962 487.848 664.453 486.706 665.188 485.791C665.925 484.86 666.839 484.211 667.93 483.842C669.021 483.473 670.206 483.396 671.484 483.611ZM685.324 496.639L684.807 499.496L683.056 499.203C681.588 498.956 680.524 498.413 679.863 497.572C679.218 496.734 679.046 495.488 679.345 493.835L680.37 488.167L678.548 487.862L679.057 485.051L680.879 485.357L681.465 482.121L684.802 482.681L684.216 485.917L687.151 486.409L686.643 489.219L683.708 488.727L682.674 494.442C682.56 495.072 682.606 495.534 682.813 495.828C683.02 496.122 683.423 496.32 684.023 496.42L685.324 496.639ZM689.877 482.997C689.974 482.462 690.242 482.061 690.681 481.794C691.122 481.511 691.65 481.421 692.266 481.524C692.881 481.627 693.347 481.884 693.663 482.294C693.982 482.688 694.093 483.153 693.996 483.688C693.902 484.208 693.634 484.609 693.193 484.892C692.754 485.159 692.227 485.241 691.612 485.137C690.996 485.034 690.529 484.786 690.21 484.391C689.894 483.981 689.783 483.517 689.877 482.997ZM692.914 487.376L690.546 500.459L687.209 499.899L689.577 486.816L692.914 487.376ZM702.022 488.733C703.301 488.947 704.396 489.407 705.309 490.112C706.238 490.819 706.902 491.733 707.3 492.855C707.702 493.96 707.779 495.198 707.531 496.568C707.283 497.937 706.776 499.077 706.01 499.987C705.243 500.896 704.298 501.541 703.172 501.92C702.065 502.286 700.873 502.361 699.595 502.147C698.317 501.933 697.213 501.472 696.284 500.764C695.374 500.044 694.718 499.131 694.317 498.025C693.915 496.92 693.839 495.682 694.087 494.312C694.334 492.943 694.841 491.803 695.608 490.893C696.377 489.968 697.315 489.322 698.421 488.956C699.544 488.593 700.744 488.519 702.022 488.733ZM701.501 491.614C700.57 491.458 699.721 491.656 698.955 492.209C698.191 492.746 697.696 493.636 697.471 494.88C697.246 496.124 697.397 497.131 697.925 497.901C698.455 498.655 699.185 499.11 700.116 499.266C701.047 499.422 701.895 499.232 702.658 498.695C703.425 498.142 703.921 497.244 704.146 496C704.371 494.756 704.219 493.757 703.688 493.003C703.161 492.233 702.432 491.77 701.501 491.614ZM718.918 491.543C720.433 491.797 721.551 492.495 722.27 493.638C722.99 494.781 723.188 496.249 722.863 498.044L721.487 505.649L718.173 505.093L719.481 497.866C719.669 496.827 719.546 495.979 719.112 495.322C718.681 494.65 718 494.236 717.069 494.079C716.122 493.921 715.309 494.101 714.63 494.619C713.951 495.138 713.507 495.972 713.299 497.121L712.043 504.065L708.705 503.505L711.073 490.421L714.411 490.981L713.936 493.603C714.443 492.779 715.135 492.19 716.012 491.834C716.908 491.465 717.877 491.368 718.918 491.543Z" fill="url(#paint13_linear)"/>
<path opacity="0.5" d="M982.435 361.088L975.964 363.154L975.931 366.741L972.524 367.828L973.014 350.092L976.695 348.917L988.071 362.866L984.665 363.953L982.435 361.088ZM980.73 358.938L976.023 352.934L975.974 360.456L980.73 358.938ZM990.389 347.997C991.456 347.656 992.456 347.614 993.39 347.87C994.324 348.126 995.097 348.626 995.709 349.371L994.81 346.762L998.011 345.74L1002.34 358.311L999.14 359.333L998.233 356.701C998.205 357.65 997.898 358.504 997.313 359.261C996.723 360.004 995.894 360.545 994.827 360.886C993.76 361.226 992.712 361.276 991.681 361.034C990.65 360.792 989.724 360.265 988.903 359.452C988.092 358.619 987.46 357.545 987.006 356.229C986.553 354.913 986.396 353.695 986.535 352.576C986.684 351.437 987.097 350.474 987.773 349.688C988.45 348.901 989.322 348.337 990.389 347.997ZM992.356 350.467C991.35 350.788 990.654 351.371 990.268 352.216C989.883 353.061 989.885 354.051 990.276 355.185C990.667 356.32 991.279 357.115 992.113 357.571C992.941 358.012 993.858 358.072 994.864 357.751C995.84 357.439 996.528 356.859 996.929 356.009C997.34 355.139 997.355 354.152 996.975 353.047C996.589 351.928 995.965 351.145 995.1 350.699C994.246 350.233 993.331 350.155 992.356 350.467Z" fill="url(#paint14_linear)"/>
<path opacity="0.5" d="M435.779 491.011C436.567 491.687 437.029 492.502 437.166 493.456C437.324 494.404 437.14 495.317 436.614 496.195C435.881 497.417 434.882 498.151 433.615 498.398C432.37 498.639 430.957 498.321 429.377 497.442L423.021 493.909L431.735 479.378L437.966 482.841C439.462 483.673 440.415 484.633 440.826 485.721C441.25 486.816 441.113 487.947 440.413 489.114C439.87 490.019 439.181 490.624 438.346 490.929C437.525 491.241 436.669 491.268 435.779 491.011ZM431.039 487.114L433.704 488.595C434.445 489.007 435.099 489.16 435.666 489.055C436.255 488.943 436.73 488.585 437.092 487.982C437.455 487.378 437.545 486.806 437.365 486.267C437.185 485.728 436.704 485.241 435.921 484.805L433.298 483.348L431.039 487.114ZM430.209 494.749C430.992 495.184 431.692 495.354 432.309 495.257C432.935 495.148 433.441 494.77 433.827 494.125C434.214 493.48 434.294 492.866 434.066 492.282C433.86 491.692 433.366 491.179 432.583 490.744L429.793 489.193L427.398 493.186L430.209 494.749ZM450.184 493.612C451.163 494.156 451.904 494.879 452.408 495.781C452.911 496.682 453.112 497.7 453.011 498.833C452.932 499.96 452.534 501.12 451.818 502.314C451.102 503.508 450.253 504.426 449.271 505.069C448.311 505.706 447.299 506.041 446.236 506.072C445.173 506.103 444.152 505.847 443.173 505.303C442.194 504.758 441.491 504.066 441.063 503.224C440.658 502.377 440.539 501.487 440.706 500.556L439.274 502.943L436.316 501.299L445.45 486.068L448.408 487.712L444.693 493.907C445.447 493.302 446.303 492.964 447.26 492.892C448.23 492.828 449.205 493.068 450.184 493.612ZM447.743 495.63C446.848 495.133 445.926 495.023 444.976 495.3C444.049 495.571 443.281 496.215 442.672 497.23C442.071 498.232 441.877 499.194 442.088 500.116C442.321 501.033 442.886 501.74 443.781 502.237C444.704 502.75 445.618 502.874 446.523 502.609C447.436 502.33 448.201 501.676 448.818 500.646C449.436 499.617 449.641 498.652 449.436 497.751C449.23 496.85 448.666 496.143 447.743 495.63Z" fill="url(#paint15_linear)"/>
<path opacity="0.5" d="M1360.22 509.843C1362.27 509.315 1364.11 509.401 1365.75 510.102C1367.39 510.802 1368.68 511.998 1369.61 513.69L1366.17 514.577C1365.57 513.79 1364.82 513.241 1363.92 512.928C1363.03 512.611 1362.06 512.589 1361.01 512.86C1360.14 513.084 1359.42 513.502 1358.84 514.113C1358.27 514.725 1357.9 515.481 1357.73 516.382C1357.57 517.284 1357.64 518.274 1357.94 519.353C1358.23 520.417 1358.69 521.299 1359.3 522.001C1359.91 522.703 1360.62 523.179 1361.44 523.431C1362.25 523.683 1363.1 523.697 1363.96 523.473C1365.02 523.201 1365.85 522.715 1366.45 522.014C1367.07 521.31 1367.43 520.472 1367.54 519.502L1370.98 518.615C1371.05 520.53 1370.56 522.186 1369.5 523.582C1368.44 524.977 1366.89 525.939 1364.85 526.467C1363.28 526.87 1361.8 526.881 1360.4 526.499C1359.01 526.098 1357.8 525.351 1356.79 524.259C1355.78 523.163 1355.06 521.813 1354.61 520.21C1354.16 518.592 1354.09 517.067 1354.39 515.635C1354.7 514.199 1355.36 512.981 1356.36 511.979C1357.35 510.962 1358.64 510.25 1360.22 509.843ZM1377.21 509.228C1378.86 508.8 1380.37 508.891 1381.72 509.502C1383.08 510.108 1384.12 511.146 1384.82 512.615L1381.36 513.509C1381.03 512.866 1380.57 512.416 1379.96 512.159C1379.36 511.886 1378.67 511.848 1377.92 512.043C1377.05 512.267 1376.41 512.779 1376 513.578C1375.6 514.358 1375.58 515.364 1375.92 516.598C1376.26 517.831 1376.81 518.697 1377.56 519.196C1378.33 519.677 1379.15 519.805 1380.01 519.581C1380.77 519.385 1381.35 519.031 1381.73 518.517C1382.12 517.989 1382.29 517.367 1382.24 516.653L1385.7 515.76C1385.85 517.373 1385.49 518.771 1384.62 519.953C1383.77 521.13 1382.52 521.933 1380.86 522.361C1379.61 522.684 1378.42 522.71 1377.3 522.438C1376.17 522.15 1375.2 521.583 1374.38 520.736C1373.56 519.89 1372.97 518.796 1372.6 517.455C1372.22 516.114 1372.17 514.88 1372.44 513.754C1372.7 512.612 1373.25 511.653 1374.08 510.877C1374.91 510.101 1375.95 509.552 1377.21 509.228Z" fill="url(#paint16_linear)"/>
<path opacity="0.5" d="M1388.31 270.418L1387.46 267.366L1393.37 265.844L1397.91 282.167L1394.47 283.054L1390.78 269.783L1388.31 270.418ZM1398.18 273.201C1399.72 278.735 1402.58 280.962 1406.77 279.883C1408.98 279.311 1410.37 278.16 1410.94 276.428C1411.5 274.697 1411.42 272.544 1410.71 269.97C1410 267.411 1408.95 265.518 1407.56 264.29C1406.17 263.062 1404.37 262.733 1402.15 263.305C1397.97 264.384 1396.65 267.683 1398.18 273.201ZM1407.48 270.803C1407.95 272.483 1408.1 273.832 1407.93 274.849C1407.78 275.847 1407.1 276.5 1405.91 276.808C1404.7 277.119 1403.76 276.882 1403.1 276.096C1402.44 275.291 1401.88 274.048 1401.41 272.368C1400.95 270.703 1400.79 269.372 1400.95 268.374C1401.11 267.356 1401.8 266.692 1403.01 266.38C1404.2 266.072 1405.13 266.321 1405.78 267.127C1406.45 267.913 1407.01 269.138 1407.48 270.803ZM1410.67 264.652L1409.82 261.6L1415.72 260.077L1420.26 276.401L1416.83 277.288L1413.13 264.016L1410.67 264.652ZM1418.34 262.673L1417.49 259.621L1423.39 258.099L1427.94 274.422L1424.5 275.309L1420.8 262.038L1418.34 262.673ZM1428.21 265.456C1429.75 270.989 1432.61 273.217 1436.79 272.138C1439.01 271.566 1440.4 270.415 1440.96 268.683C1441.53 266.951 1441.45 264.799 1440.73 262.224C1440.02 259.666 1438.97 257.772 1437.58 256.544C1436.19 255.316 1434.39 254.988 1432.18 255.56C1427.99 256.639 1426.67 259.937 1428.21 265.456ZM1437.5 263.058C1437.97 264.738 1438.12 266.087 1437.96 267.104C1437.8 268.102 1437.13 268.755 1435.94 269.062C1434.73 269.374 1433.79 269.137 1433.12 268.351C1432.47 267.545 1431.9 266.303 1431.44 264.622C1430.97 262.958 1430.82 261.626 1430.97 260.628C1431.14 259.611 1431.82 258.947 1433.03 258.635C1434.23 258.327 1435.15 258.576 1435.81 259.381C1436.47 260.168 1437.04 261.393 1437.5 263.058ZM1440.69 256.907L1439.84 253.855L1445.75 252.332L1450.29 268.656L1446.85 269.543L1443.16 256.271L1440.69 256.907Z" fill="url(#paint17_linear)"/>
<path opacity="0.5" d="M61.9585 250.821L62.144 267.572L58.7841 267.607L58.6547 255.919L54.4884 267.651L51.5605 267.681L47.1359 256.086L47.2647 267.725L43.8809 267.76L43.6955 251.009L47.7993 250.967L53.0265 263.514L57.8787 250.863L61.9585 250.821ZM67.3406 254.222L71.0643 263.208L74.3242 254.151L78.044 254.112L70.1258 273.827L66.382 273.865L69.3075 267.115L63.5728 254.261L67.3406 254.222ZM84.22 253.881C85.8359 253.864 87.1363 254.259 88.1213 255.065C89.1063 255.871 89.7263 256.953 89.9814 258.31L86.8135 258.343C86.6785 257.704 86.3848 257.195 85.9326 256.816C85.4803 256.436 84.8943 256.25 84.1743 256.258C83.5983 256.263 83.1519 256.404 82.8349 256.679C82.5179 256.955 82.362 257.324 82.3671 257.788C82.3712 258.156 82.5025 258.451 82.7609 258.672C83.0194 258.894 83.3413 259.066 83.7267 259.19C84.1121 259.314 84.6658 259.461 85.3877 259.629C86.3981 259.843 87.2167 260.075 87.8435 260.324C88.4862 260.558 89.0345 260.944 89.4885 261.483C89.9583 262.007 90.1982 262.724 90.2083 263.636C90.2209 264.772 89.7831 265.697 88.895 266.41C88.0228 267.123 86.8348 267.487 85.3308 267.502C83.6029 267.52 82.2148 267.15 81.1663 266.393C80.1177 265.62 79.4734 264.514 79.2335 263.077L82.4733 263.043C82.5606 263.699 82.8543 264.216 83.3545 264.594C83.8546 264.957 84.5046 265.135 85.3045 265.126C85.8805 265.121 86.319 264.98 86.62 264.705C86.9207 264.414 87.0687 264.044 87.0637 263.596C87.0595 263.212 86.92 262.902 86.6454 262.665C86.3867 262.427 86.0567 262.247 85.6553 262.123C85.2699 261.999 84.7163 261.852 83.9943 261.684C82.9999 261.47 82.1895 261.254 81.563 261.037C80.9524 260.803 80.4203 260.432 79.9666 259.925C79.529 259.417 79.3052 258.716 79.2953 257.82C79.2825 256.668 79.7121 255.727 80.5841 254.998C81.4561 254.269 82.6681 253.897 84.22 253.881ZM99.8404 264.281L99.8726 267.185L98.0967 267.203C96.6088 267.219 95.4608 266.87 94.6529 266.159C93.861 265.447 93.4557 264.251 93.4371 262.571L93.3734 256.811L91.5255 256.83L91.4938 253.974L93.3417 253.955L93.3053 250.668L96.6892 250.633L96.7256 253.921L99.7014 253.89L99.733 256.746L96.7572 256.776L96.8215 262.584C96.8286 263.224 96.9615 263.671 97.2203 263.924C97.4792 264.177 97.9125 264.301 98.5205 264.295L99.8404 264.281ZM114.732 259.88C114.735 260.216 114.7 260.601 114.624 261.033L104.881 261.133C104.942 262.317 105.272 263.185 105.87 263.739C106.468 264.293 107.207 264.566 108.087 264.557C108.871 264.549 109.517 264.35 110.025 263.961C110.548 263.571 110.879 263.048 111.015 262.391L114.591 262.354C114.425 263.284 114.059 264.119 113.491 264.861C112.923 265.603 112.185 266.187 111.278 266.612C110.387 267.037 109.389 267.255 108.285 267.267C106.989 267.28 105.834 267.02 104.82 266.486C103.806 265.937 103.013 265.153 102.442 264.135C101.871 263.116 101.577 261.911 101.562 260.519C101.547 259.127 101.813 257.917 102.362 256.887C102.91 255.841 103.685 255.041 104.687 254.487C105.689 253.933 106.838 253.649 108.134 253.636C109.446 253.622 110.593 253.882 111.575 254.416C112.573 254.95 113.341 255.694 113.88 256.649C114.434 257.587 114.718 258.664 114.732 259.88ZM111.32 259.579C111.356 258.491 111.059 257.67 110.429 257.116C109.815 256.563 109.06 256.29 108.164 256.299C107.252 256.309 106.487 256.597 105.869 257.163C105.251 257.729 104.916 258.557 104.864 259.645L111.32 259.579ZM120.478 256.221C120.964 255.368 121.613 254.697 122.424 254.209C123.234 253.705 124.143 253.447 125.151 253.437L125.191 257.061L124.207 257.071C121.728 257.096 120.5 258.261 120.526 260.565L120.597 266.972L117.213 267.007L117.066 253.712L120.45 253.677L120.478 256.221ZM129.306 253.586L133.03 262.573L136.29 253.515L140.01 253.477L132.091 273.191L128.347 273.229L131.273 266.479L125.538 253.625L129.306 253.586Z" fill="url(#paint18_linear)"/>
<path d="M1122.55 478.574L1122.01 489.961L1114.51 483.954L1122.55 478.574Z" fill="url(#paint19_linear)"/>
<path d="M1145.14 479.022C1145.81 479.067 1146.49 479.246 1147.07 479.56C1147.65 479.874 1148.19 480.367 1148.6 480.95C1149.05 481.533 1149.36 482.205 1149.58 482.967C1149.81 483.729 1149.9 484.536 1149.9 485.388C1149.85 486.24 1149.67 487.047 1149.4 487.764C1149.14 488.482 1148.73 489.154 1148.24 489.692C1147.74 490.23 1147.2 490.678 1146.58 490.947C1145.95 491.216 1145.32 491.396 1144.6 491.351C1143.93 491.306 1143.25 491.127 1142.67 490.768C1142.08 490.409 1141.59 489.961 1141.14 489.378C1140.74 488.795 1140.38 488.123 1140.15 487.361C1139.93 486.599 1139.84 485.792 1139.88 484.94C1139.93 484.088 1140.11 483.281 1140.38 482.564C1140.65 481.846 1141.05 481.174 1141.5 480.636C1141.95 480.098 1142.53 479.65 1143.12 479.381C1143.79 479.157 1144.46 478.977 1145.14 479.022Z" fill="url(#paint20_linear)"/>
<path d="M1145.27 475.525C1146.35 475.57 1147.38 475.884 1148.28 476.377C1149.18 476.915 1150.03 477.632 1150.71 478.529C1151.38 479.426 1151.92 480.501 1152.28 481.667C1152.64 482.833 1152.82 484.133 1152.77 485.478C1152.73 486.823 1152.46 488.078 1152.01 489.244C1151.56 490.409 1150.93 491.44 1150.21 492.292C1149.45 493.144 1148.6 493.817 1147.61 494.265C1146.67 494.713 1145.59 494.937 1144.51 494.893C1143.43 494.848 1142.4 494.534 1141.5 493.996C1140.6 493.458 1139.79 492.696 1139.12 491.799C1138.45 490.902 1137.95 489.826 1137.59 488.661C1137.23 487.495 1137.1 486.195 1137.15 484.895C1137.19 483.55 1137.46 482.295 1137.91 481.174C1138.36 480.053 1138.94 479.022 1139.7 478.17C1140.42 477.318 1141.32 476.646 1142.26 476.198C1143.16 475.704 1144.2 475.48 1145.27 475.525ZM1144.64 491.351C1145.32 491.396 1145.99 491.216 1146.62 490.947C1147.25 490.678 1147.79 490.23 1148.28 489.692C1148.78 489.154 1149.14 488.482 1149.45 487.764C1149.72 487.047 1149.9 486.24 1149.94 485.388C1149.99 484.536 1149.85 483.729 1149.63 482.967C1149.4 482.205 1149.05 481.533 1148.64 480.95C1148.19 480.367 1147.7 479.919 1147.11 479.56C1146.53 479.246 1145.9 479.022 1145.18 479.022C1144.51 478.977 1143.84 479.157 1143.25 479.426C1142.67 479.695 1142.08 480.143 1141.64 480.681C1141.19 481.219 1140.78 481.846 1140.51 482.609C1140.24 483.326 1140.06 484.133 1140.02 484.985C1139.97 485.836 1140.11 486.643 1140.29 487.406C1140.51 488.168 1140.83 488.84 1141.28 489.423C1141.68 490.006 1142.22 490.454 1142.8 490.813C1143.3 491.127 1143.97 491.306 1144.64 491.351Z" fill="url(#paint21_linear)"/>
<path d="M1209.22 303.999L1206.21 472.97L1089.72 469.473L1099.11 313.817L1209.22 303.999Z" fill="url(#paint22_linear)"/>
<path d="M1209.22 303.999L1206.21 472.97L1089.72 469.473L1099.11 313.817L1209.22 303.999Z" fill="url(#paint23_linear)"/>
<g opacity="0.5">
<path opacity="0.5" d="M1178.19 323.994L1125.38 328.073C1124.75 328.118 1124.17 328.297 1123.63 328.566C1123.09 328.835 1122.6 329.194 1122.19 329.642C1121.79 330.091 1121.43 330.629 1121.16 331.167C1120.89 331.75 1120.75 332.332 1120.71 333.005C1120.66 333.632 1120.75 334.26 1120.98 334.753C1121.16 335.291 1121.47 335.784 1121.83 336.143C1122.19 336.547 1122.69 336.816 1123.18 337.04C1123.72 337.219 1124.26 337.309 1124.89 337.264L1177.92 333.543C1178.59 333.498 1179.22 333.319 1179.81 333.05C1180.39 332.781 1180.93 332.377 1181.38 331.929C1181.83 331.481 1182.19 330.898 1182.46 330.315C1182.73 329.732 1182.86 329.06 1182.9 328.432C1182.9 327.76 1182.82 327.132 1182.59 326.594C1182.37 326.056 1182.01 325.563 1181.6 325.159C1181.2 324.756 1180.66 324.442 1180.12 324.263C1179.49 324.038 1178.86 323.949 1178.19 323.994Z" fill="url(#paint24_linear)"/>
<path d="M1194 352.148L1108.9 356.9C1108.58 356.9 1108.32 356.99 1108.05 357.124C1107.78 357.259 1107.55 357.438 1107.33 357.662C1107.1 357.886 1106.92 358.155 1106.83 358.424C1106.7 358.693 1106.61 359.007 1106.61 359.366C1106.61 359.68 1106.65 359.994 1106.74 360.263C1106.83 360.532 1106.97 360.801 1107.19 360.98C1107.37 361.159 1107.6 361.338 1107.87 361.428C1108.14 361.518 1108.41 361.563 1108.72 361.563L1193.95 357.079C1194.31 357.079 1194.63 356.99 1194.94 356.81C1195.25 356.676 1195.52 356.452 1195.75 356.228C1195.97 356.003 1196.15 355.69 1196.29 355.421C1196.42 355.107 1196.51 354.793 1196.51 354.434C1196.51 354.076 1196.47 353.762 1196.33 353.493C1196.2 353.224 1196.02 352.955 1195.79 352.731C1195.57 352.507 1195.3 352.372 1195.03 352.238C1194.67 352.148 1194.36 352.103 1194 352.148Z" fill="url(#paint25_linear)"/>
<path d="M1193.68 365.374L1108.23 369.364C1107.91 369.364 1107.64 369.453 1107.37 369.588C1107.1 369.722 1106.83 369.902 1106.65 370.126C1106.43 370.35 1106.25 370.619 1106.16 370.888C1106.02 371.157 1105.94 371.471 1105.94 371.829C1105.94 372.143 1105.98 372.457 1106.07 372.726C1106.16 372.995 1106.29 373.264 1106.52 373.443C1106.7 373.667 1106.92 373.802 1107.19 373.936C1107.46 374.026 1107.73 374.116 1108.05 374.071L1193.68 370.395C1194.04 370.395 1194.36 370.305 1194.67 370.171C1194.98 370.036 1195.25 369.812 1195.48 369.588C1195.7 369.364 1195.88 369.05 1196.02 368.781C1196.15 368.467 1196.24 368.153 1196.24 367.795C1196.24 367.436 1196.2 367.122 1196.06 366.808C1195.93 366.494 1195.75 366.27 1195.52 366.046C1195.3 365.822 1195.03 365.643 1194.76 365.553C1194.36 365.374 1194.04 365.329 1193.68 365.374Z" fill="url(#paint26_linear)"/>
<path d="M1193.37 378.733L1107.51 381.916C1107.19 381.916 1106.92 382.006 1106.65 382.141C1106.38 382.275 1106.11 382.454 1105.94 382.679C1105.71 382.903 1105.53 383.172 1105.4 383.441C1105.26 383.71 1105.17 384.024 1105.17 384.382C1105.17 384.696 1105.22 385.01 1105.31 385.324C1105.4 385.593 1105.53 385.862 1105.76 386.086C1105.94 386.31 1106.16 386.444 1106.43 386.579C1106.7 386.669 1106.97 386.758 1107.28 386.758L1193.28 383.889C1193.64 383.889 1193.95 383.799 1194.27 383.665C1194.58 383.53 1194.85 383.351 1195.07 383.082C1195.3 382.858 1195.48 382.544 1195.61 382.275C1195.75 381.961 1195.84 381.647 1195.84 381.289C1195.84 380.93 1195.79 380.616 1195.66 380.302C1195.52 379.989 1195.34 379.72 1195.12 379.496C1194.9 379.271 1194.63 379.092 1194.31 379.002C1194.09 378.778 1193.73 378.689 1193.37 378.733Z" fill="url(#paint27_linear)"/>
<path d="M1193.05 392.228L1106.79 394.604C1106.47 394.604 1106.2 394.693 1105.89 394.828C1105.62 394.962 1105.35 395.142 1105.17 395.366C1104.95 395.59 1104.77 395.859 1104.63 396.128C1104.5 396.397 1104.41 396.756 1104.41 397.069C1104.41 397.383 1104.45 397.697 1104.54 398.011C1104.63 398.28 1104.77 398.549 1104.99 398.773C1105.17 398.997 1105.4 399.176 1105.67 399.266C1105.94 399.401 1106.2 399.445 1106.52 399.445L1192.92 397.383C1193.28 397.383 1193.59 397.294 1193.91 397.159C1194.22 397.025 1194.49 396.845 1194.72 396.576C1194.94 396.352 1195.16 396.038 1195.3 395.724C1195.43 395.411 1195.52 395.052 1195.52 394.738C1195.52 394.379 1195.48 394.066 1195.34 393.752C1195.21 393.438 1195.03 393.169 1194.81 392.945C1194.58 392.721 1194.31 392.541 1194 392.407C1193.77 392.272 1193.41 392.228 1193.05 392.228Z" fill="url(#paint28_linear)"/>
<path d="M1192.74 405.856L1106.11 407.381C1105.8 407.381 1105.53 407.47 1105.22 407.605C1104.95 407.739 1104.68 407.919 1104.5 408.143C1104.27 408.367 1104.09 408.636 1103.96 408.905C1103.82 409.219 1103.73 409.533 1103.73 409.846C1103.73 410.16 1103.78 410.519 1103.87 410.788C1103.96 411.057 1104.09 411.326 1104.32 411.55C1104.5 411.774 1104.72 411.954 1104.99 412.043C1105.26 412.178 1105.53 412.223 1105.85 412.223L1192.65 411.012C1193.01 411.012 1193.32 410.922 1193.64 410.788C1193.95 410.653 1194.22 410.474 1194.45 410.205C1194.67 409.981 1194.9 409.667 1195.03 409.353C1195.16 409.04 1195.25 408.681 1195.25 408.322C1195.25 407.964 1195.21 407.605 1195.07 407.336C1194.94 407.022 1194.76 406.753 1194.54 406.529C1194.31 406.305 1194.04 406.125 1193.73 405.991C1193.41 405.901 1193.1 405.856 1192.74 405.856Z" fill="url(#paint29_linear)"/>
<path d="M1192.43 419.62L1105.4 420.293C1105.08 420.293 1104.77 420.382 1104.5 420.472C1104.23 420.606 1103.96 420.786 1103.73 421.01C1103.51 421.234 1103.33 421.503 1103.2 421.772C1103.06 422.086 1102.97 422.4 1102.97 422.714C1102.97 423.072 1103.02 423.386 1103.11 423.655C1103.2 423.969 1103.33 424.193 1103.56 424.417C1103.73 424.641 1103.96 424.821 1104.23 424.955C1104.5 425.09 1104.77 425.134 1105.08 425.134L1192.29 424.776C1192.65 424.776 1192.96 424.686 1193.28 424.552C1193.59 424.417 1193.86 424.238 1194.09 423.969C1194.31 423.745 1194.54 423.431 1194.67 423.117C1194.81 422.803 1194.9 422.445 1194.9 422.086C1194.9 421.727 1194.85 421.369 1194.72 421.055C1194.58 420.741 1194.4 420.472 1194.18 420.248C1193.95 420.024 1193.68 419.844 1193.37 419.71C1193.1 419.71 1192.78 419.62 1192.43 419.62Z" fill="url(#paint30_linear)"/>
<path d="M1192.11 433.563L1104.68 433.383C1104.36 433.383 1104.05 433.473 1103.78 433.563C1103.51 433.697 1103.24 433.876 1103.02 434.101C1102.79 434.325 1102.61 434.594 1102.48 434.908C1102.34 435.221 1102.25 435.535 1102.25 435.849C1102.25 436.208 1102.3 436.522 1102.39 436.791C1102.48 437.104 1102.66 437.373 1102.84 437.598C1103.02 437.822 1103.24 438.001 1103.51 438.135C1103.78 438.27 1104.05 438.315 1104.36 438.315L1191.98 438.853C1192.34 438.853 1192.65 438.763 1192.96 438.629C1193.28 438.494 1193.55 438.315 1193.82 438.046C1194.04 437.822 1194.27 437.508 1194.4 437.194C1194.54 436.88 1194.63 436.522 1194.63 436.163C1194.63 435.804 1194.58 435.446 1194.45 435.132C1194.31 434.818 1194.13 434.549 1193.91 434.28C1193.68 434.056 1193.41 433.832 1193.1 433.697C1192.78 433.607 1192.47 433.563 1192.11 433.563Z" fill="url(#paint31_linear)"/>
<path d="M1191.75 447.595L1103.91 446.519C1103.6 446.519 1103.29 446.564 1103.02 446.698C1102.75 446.833 1102.48 447.012 1102.25 447.236C1102.03 447.461 1101.85 447.73 1101.71 448.043C1101.58 448.357 1101.49 448.671 1101.49 449.03C1101.49 449.388 1101.53 449.702 1101.62 450.016C1101.71 450.33 1101.89 450.599 1102.07 450.823C1102.25 451.047 1102.48 451.226 1102.75 451.361C1103.02 451.495 1103.29 451.585 1103.6 451.585L1191.62 452.975C1191.98 452.975 1192.34 452.93 1192.65 452.796C1192.96 452.661 1193.23 452.482 1193.5 452.213C1193.73 451.989 1193.95 451.675 1194.09 451.361C1194.22 451.047 1194.31 450.688 1194.31 450.33C1194.31 449.971 1194.27 449.612 1194.13 449.299C1194 448.985 1193.82 448.671 1193.59 448.447C1193.37 448.223 1193.1 447.998 1192.78 447.864C1192.47 447.685 1192.11 447.595 1191.75 447.595Z" fill="url(#paint32_linear)"/>
</g>
<path d="M1215.37 287.052C1216.54 286.917 1217.62 287.052 1218.61 287.366C1219.59 287.68 1220.49 288.173 1221.26 288.8C1222.02 289.428 1222.6 290.235 1223.01 291.176C1223.41 292.118 1223.64 293.149 1223.64 294.225L1221.17 494.086C1221.17 495.386 1220.9 496.596 1220.4 497.717C1219.91 498.838 1219.23 499.779 1218.43 500.586C1217.57 501.393 1216.63 502.021 1215.51 502.469C1214.43 502.873 1213.22 503.097 1212 503.007L1082.85 496.417C1081.82 496.372 1080.88 496.058 1080.02 495.61C1079.17 495.117 1078.41 494.489 1077.78 493.682C1077.15 492.875 1076.7 491.934 1076.39 490.947C1076.07 489.916 1075.94 488.795 1076.03 487.675L1087.7 307.181C1087.75 306.15 1088.02 305.209 1088.42 304.267C1088.83 303.371 1089.36 302.519 1090.04 301.802C1090.71 301.084 1091.48 300.457 1092.33 300.008C1093.18 299.56 1094.12 299.246 1095.07 299.157L1215.37 287.052ZM1206.21 472.97L1209.27 303.998L1099.15 313.861L1089.72 469.473L1206.21 472.97ZM1144.51 494.893C1145.59 494.937 1146.62 494.713 1147.61 494.265C1148.55 493.817 1149.45 493.144 1150.21 492.292C1150.98 491.44 1151.56 490.409 1152.01 489.244C1152.46 488.078 1152.73 486.823 1152.77 485.478C1152.82 484.133 1152.64 482.833 1152.28 481.667C1151.92 480.502 1151.38 479.426 1150.71 478.529C1150.03 477.632 1149.23 476.915 1148.28 476.377C1147.38 475.839 1146.35 475.57 1145.27 475.525C1144.2 475.48 1143.16 475.704 1142.22 476.198C1141.28 476.646 1140.42 477.318 1139.66 478.17C1138.94 479.022 1138.31 480.008 1137.86 481.174C1137.41 482.295 1137.15 483.55 1137.1 484.895C1137.06 486.24 1137.19 487.495 1137.55 488.661C1137.91 489.827 1138.4 490.902 1139.08 491.799C1139.75 492.696 1140.56 493.458 1141.46 493.996C1142.4 494.489 1143.43 494.848 1144.51 494.893ZM1122.01 489.961L1122.55 478.529L1114.47 483.909L1122.01 489.961ZM1168.09 492.023L1176.71 486.419L1168.49 480.233L1168.09 492.023Z" fill="url(#paint33_linear)"/>
<path d="M1168.49 480.232L1176.75 486.464L1168.13 492.023L1168.49 480.232Z" fill="url(#paint34_linear)"/>
<path d="M1224.98 296.377C1224.98 296.332 1224.98 296.332 1224.98 296.287C1224.98 296.242 1224.98 296.198 1224.98 296.153C1224.98 296.108 1224.98 296.063 1224.98 296.018C1224.98 295.929 1224.98 295.884 1224.98 295.794V295.749C1224.98 295.749 1224.98 295.749 1224.98 295.704C1224.98 295.615 1224.94 295.48 1224.94 295.391V295.346C1224.94 295.301 1224.94 295.256 1224.89 295.211C1224.89 295.166 1224.85 295.077 1224.85 295.032C1224.85 294.987 1224.85 294.987 1224.85 294.942V294.897C1224.85 294.853 1224.85 294.808 1224.8 294.808C1224.8 294.763 1224.76 294.718 1224.76 294.673C1224.76 294.628 1224.71 294.584 1224.71 294.584C1224.71 294.539 1224.67 294.494 1224.67 294.404C1224.67 294.359 1224.67 294.315 1224.62 294.315C1224.62 294.27 1224.58 294.225 1224.58 294.18C1224.58 294.135 1224.58 294.135 1224.53 294.09C1224.53 294.09 1224.53 294.09 1224.53 294.046C1224.53 294.001 1224.49 294.001 1224.49 293.956C1224.44 293.911 1224.44 293.821 1224.4 293.777C1224.35 293.732 1224.35 293.642 1224.31 293.597C1224.26 293.552 1224.26 293.508 1224.22 293.418C1224.17 293.373 1224.17 293.328 1224.13 293.239L1222.74 290.728C1222.87 290.997 1223.01 291.221 1223.1 291.49C1223.1 291.535 1223.14 291.58 1223.14 291.625C1223.19 291.714 1223.19 291.804 1223.23 291.849C1223.23 291.894 1223.28 291.938 1223.28 292.028C1223.32 292.118 1223.32 292.207 1223.37 292.297C1223.37 292.342 1223.41 292.387 1223.41 292.476C1223.41 292.566 1223.46 292.656 1223.46 292.745C1223.46 292.79 1223.46 292.835 1223.5 292.925C1223.55 293.059 1223.55 293.194 1223.55 293.328C1223.55 293.373 1223.55 293.373 1223.55 293.418C1223.55 293.552 1223.55 293.642 1223.59 293.777C1223.59 293.821 1223.59 293.866 1223.59 293.911C1223.59 294.046 1223.59 294.18 1223.59 294.359L1221.12 494.22C1221.12 494.489 1221.12 494.803 1221.08 495.072V495.117C1221.03 495.386 1220.99 495.655 1220.94 495.924C1220.9 496.193 1220.81 496.462 1220.76 496.731C1220.76 496.731 1220.76 496.731 1220.76 496.775C1220.67 497.044 1220.58 497.269 1220.49 497.538C1220.4 497.807 1220.27 498.031 1220.18 498.255C1220.04 498.479 1219.91 498.748 1219.77 498.972C1219.64 499.196 1219.5 499.42 1219.32 499.645C1219.19 499.869 1219.01 500.048 1218.83 500.227C1218.65 500.407 1218.47 500.586 1218.29 500.765C1218.11 500.945 1217.89 501.124 1217.71 501.259C1217.71 501.259 1217.66 501.259 1217.66 501.303C1217.48 501.438 1217.26 501.617 1217.03 501.752C1216.9 501.841 1216.76 501.886 1216.63 501.976C1216.45 502.066 1216.32 502.155 1216.14 502.245C1216.05 502.29 1215.91 502.335 1215.82 502.379C1215.64 502.469 1215.51 502.514 1215.33 502.559C1215.24 502.604 1215.1 502.648 1215.01 502.648C1214.83 502.693 1214.65 502.738 1214.43 502.783C1214.34 502.828 1214.2 502.828 1214.12 502.873C1214.07 502.873 1214.03 502.873 1213.98 502.873C1213.76 502.917 1213.49 502.962 1213.26 502.962C1213.8 502.917 1214.34 502.873 1214.88 502.783C1215.1 502.738 1215.37 502.738 1215.6 502.693C1215.64 502.693 1215.69 502.693 1215.73 502.693C1215.78 502.693 1215.78 502.693 1215.82 502.693C1215.91 502.693 1215.96 502.648 1216.05 502.648C1216.23 502.604 1216.41 502.559 1216.63 502.514C1216.67 502.514 1216.72 502.514 1216.76 502.469C1216.81 502.469 1216.9 502.424 1216.94 502.379C1217.12 502.335 1217.3 502.245 1217.44 502.2C1217.48 502.2 1217.53 502.155 1217.57 502.155C1217.62 502.11 1217.66 502.11 1217.71 502.066C1217.75 502.021 1217.84 502.021 1217.93 501.976C1218.02 501.931 1218.11 501.886 1218.2 501.841C1218.25 501.797 1218.34 501.797 1218.38 501.752C1218.47 501.707 1218.52 501.662 1218.61 501.617C1218.7 501.572 1218.79 501.528 1218.83 501.483C1218.92 501.438 1218.96 501.393 1219.05 501.303C1219.1 501.259 1219.14 501.214 1219.19 501.214C1219.19 501.214 1219.23 501.214 1219.23 501.169L1219.28 501.124C1219.32 501.079 1219.41 501.034 1219.46 500.99C1219.5 500.945 1219.59 500.9 1219.64 500.855C1219.68 500.81 1219.77 500.765 1219.82 500.721C1219.86 500.676 1219.95 500.631 1220 500.541C1220.04 500.496 1220.09 500.452 1220.13 500.407C1220.18 500.362 1220.22 500.317 1220.27 500.272C1220.31 500.227 1220.31 500.227 1220.36 500.183L1220.4 500.138C1220.45 500.093 1220.49 500.048 1220.54 500.003C1220.58 499.958 1220.63 499.914 1220.67 499.869C1220.72 499.824 1220.76 499.779 1220.81 499.734C1220.85 499.689 1220.85 499.689 1220.9 499.645C1220.9 499.645 1220.9 499.6 1220.94 499.6C1220.99 499.555 1221.03 499.51 1221.08 499.42C1221.12 499.376 1221.17 499.331 1221.17 499.286C1221.17 499.241 1221.26 499.196 1221.26 499.151C1221.3 499.107 1221.3 499.062 1221.35 499.017C1221.39 498.972 1221.39 498.927 1221.43 498.838C1221.48 498.793 1221.48 498.748 1221.52 498.658C1221.57 498.613 1221.57 498.569 1221.61 498.479C1221.66 498.434 1221.66 498.389 1221.7 498.3C1221.75 498.255 1221.75 498.21 1221.79 498.165C1221.84 498.12 1221.84 498.031 1221.88 497.986C1221.93 497.941 1221.93 497.851 1221.97 497.807C1222.02 497.762 1222.02 497.672 1222.06 497.627V497.582C1222.06 497.538 1222.11 497.493 1222.11 497.493C1222.15 497.448 1222.15 497.358 1222.2 497.313C1222.2 497.269 1222.24 497.179 1222.24 497.134C1222.24 497.089 1222.29 497 1222.29 496.955V496.91C1222.29 496.91 1222.29 496.91 1222.29 496.865C1222.29 496.82 1222.29 496.775 1222.33 496.775C1222.33 496.686 1222.38 496.641 1222.38 496.551C1222.38 496.462 1222.42 496.417 1222.42 496.327C1222.42 496.237 1222.47 496.193 1222.47 496.103C1222.47 496.058 1222.51 495.968 1222.51 495.924C1222.51 495.834 1222.56 495.744 1222.56 495.655C1222.56 495.565 1222.6 495.475 1222.6 495.386V495.341V495.296C1222.6 495.251 1222.6 495.161 1222.6 495.117C1222.6 495.027 1222.6 494.937 1222.6 494.848C1222.6 494.803 1222.6 494.803 1222.6 494.758C1222.6 494.713 1222.6 494.713 1222.6 494.668C1222.6 494.623 1222.6 494.623 1222.6 494.579C1222.6 494.534 1222.6 494.534 1222.6 494.489L1224.94 297.184C1224.98 296.601 1224.98 296.511 1224.98 296.377Z" fill="url(#paint35_linear)"/>
<path d="M1178.19 323.994L1125.38 328.073C1124.75 328.118 1124.17 328.297 1123.63 328.566C1123.09 328.835 1122.6 329.194 1122.19 329.642C1121.79 330.091 1121.43 330.629 1121.16 331.167C1120.89 331.75 1120.75 332.332 1120.71 333.005C1120.66 333.632 1120.75 334.26 1120.98 334.753C1121.16 335.291 1121.47 335.784 1121.83 336.143C1122.19 336.547 1122.69 336.816 1123.18 337.04C1123.72 337.219 1124.26 337.309 1124.89 337.264L1177.92 333.543C1178.59 333.498 1179.22 333.319 1179.81 333.05C1180.39 332.781 1180.93 332.377 1181.38 331.929C1181.83 331.481 1182.19 330.898 1182.46 330.315C1182.73 329.732 1182.86 329.06 1182.91 328.432C1182.91 327.76 1182.82 327.132 1182.59 326.594C1182.37 326.056 1182.01 325.563 1181.6 325.159C1181.2 324.756 1180.66 324.442 1180.12 324.263C1179.49 324.038 1178.86 323.949 1178.19 323.994Z" fill="url(#paint36_linear)"/>
<circle cx="1230" cy="277" r="5" fill="#9BDAF9"/>
<defs>
<linearGradient id="paint0_linear" x1="329.664" y1="345.133" x2="368.79" y2="466.149" gradientUnits="userSpaceOnUse">
<stop stop-color="#6C4BF2"/>
<stop offset="1" stop-color="#9BDAF9"/>
</linearGradient>
<linearGradient id="paint1_linear" x1="314.093" y1="323.556" x2="351.633" y2="456.084" gradientUnits="userSpaceOnUse">
<stop stop-color="#6C4BF2"/>
<stop offset="1" stop-color="#9BDAF9"/>
</linearGradient>
<linearGradient id="paint2_linear" x1="322.965" y1="351.466" x2="376.483" y2="418.718" gradientUnits="userSpaceOnUse">
<stop stop-color="#6C4BF2"/>
<stop offset="1" stop-color="#9BDAF9"/>
</linearGradient>
<linearGradient id="paint3_linear" x1="322.965" y1="351.466" x2="376.483" y2="418.718" gradientUnits="userSpaceOnUse">
<stop stop-color="#6C4BF2"/>
<stop offset="1" stop-color="#9BDAF9"/>
</linearGradient>
<linearGradient id="paint4_linear" x1="332.087" y1="355.627" x2="408.285" y2="455.168" gradientUnits="userSpaceOnUse">
<stop stop-color="#6C4BF2"/>
<stop offset="1" stop-color="#9BDAF9"/>
</linearGradient>
<linearGradient id="paint5_linear" x1="282.131" y1="332.694" x2="281.074" y2="469.749" gradientUnits="userSpaceOnUse">
<stop stop-color="#6C4BF2"/>
<stop offset="1" stop-color="#9BDAF9"/>
</linearGradient>
<linearGradient id="paint6_linear" x1="279.377" y1="354.095" x2="280.052" y2="478.014" gradientUnits="userSpaceOnUse">
<stop stop-color="#6C4BF2"/>
<stop offset="1" stop-color="#9BDAF9"/>
</linearGradient>
<linearGradient id="paint7_linear" x1="267.153" y1="371.1" x2="282.52" y2="483.307" gradientUnits="userSpaceOnUse">
<stop stop-color="#6C4BF2"/>
<stop offset="1" stop-color="#9BDAF9"/>
</linearGradient>
<linearGradient id="paint8_linear" x1="268.204" y1="203.462" x2="309.081" y2="429.838" gradientUnits="userSpaceOnUse">
<stop stop-color="#6C4BF2"/>
<stop offset="1" stop-color="#9BDAF9"/>
</linearGradient>
<linearGradient id="paint9_linear" x1="327.296" y1="251.71" x2="289.222" y2="440.854" gradientUnits="userSpaceOnUse">
<stop stop-color="#6C4BF2"/>
<stop offset="1" stop-color="#9BDAF9"/>
</linearGradient>
<linearGradient id="paint10_linear" x1="227.445" y1="371.986" x2="228.271" y2="398.252" gradientUnits="userSpaceOnUse">
<stop stop-color="#6C4BF2"/>
<stop offset="1" stop-color="#9BDAF9"/>
</linearGradient>
<linearGradient id="paint11_linear" x1="239.55" y1="321.8" x2="245.519" y2="457.63" gradientUnits="userSpaceOnUse">
<stop stop-color="#6C4BF2"/>
<stop offset="1" stop-color="#9BDAF9"/>
</linearGradient>
<linearGradient id="paint12_linear" x1="249.753" y1="273.763" x2="184.335" y2="398.327" gradientUnits="userSpaceOnUse">
<stop stop-color="#6C4BF2"/>
<stop offset="1" stop-color="#9BDAF9"/>
</linearGradient>
<linearGradient id="paint13_linear" x1="646.865" y1="466.783" x2="653.435" y2="541.483" gradientUnits="userSpaceOnUse">
<stop stop-color="#6C4BF2"/>
<stop offset="1" stop-color="#9BDAF9"/>
</linearGradient>
<linearGradient id="paint14_linear" x1="962.629" y1="343.714" x2="1013.63" y2="387.75" gradientUnits="userSpaceOnUse">
<stop stop-color="#6C4BF2"/>
<stop offset="1" stop-color="#9BDAF9"/>
</linearGradient>
<linearGradient id="paint15_linear" x1="434.239" y1="470.428" x2="438.046" y2="535.074" gradientUnits="userSpaceOnUse">
<stop stop-color="#6C4BF2"/>
<stop offset="1" stop-color="#9BDAF9"/>
</linearGradient>
<linearGradient id="paint16_linear" x1="1348.2" y1="503.777" x2="1396.67" y2="549.595" gradientUnits="userSpaceOnUse">
<stop stop-color="#6C4BF2"/>
<stop offset="1" stop-color="#9BDAF9"/>
</linearGradient>
<linearGradient id="paint17_linear" x1="1381.34" y1="259.609" x2="1420.73" y2="323.124" gradientUnits="userSpaceOnUse">
<stop stop-color="#6C4BF2"/>
<stop offset="1" stop-color="#9BDAF9"/>
</linearGradient>
<linearGradient id="paint18_linear" x1="41.4673" y1="241.795" x2="58.2587" y2="315.824" gradientUnits="userSpaceOnUse">
<stop stop-color="#6C4BF2"/>
<stop offset="1" stop-color="#9BDAF9"/>
</linearGradient>
<linearGradient id="paint19_linear" x1="1118.64" y1="432.444" x2="1118.37" y2="552.723" gradientUnits="userSpaceOnUse">
<stop stop-color="#6C4BF2"/>
<stop offset="1" stop-color="#9BDAF9"/>
</linearGradient>
<linearGradient id="paint20_linear" x1="1129.22" y1="483.914" x2="1203.02" y2="489.9" gradientUnits="userSpaceOnUse">
<stop stop-color="#6C4BF2"/>
<stop offset="1" stop-color="#9BDAF9"/>
</linearGradient>
<linearGradient id="paint21_linear" x1="1106.99" y1="518.714" x2="1181.35" y2="441.384" gradientUnits="userSpaceOnUse">
<stop stop-color="#6C4BF2"/>
<stop offset="1" stop-color="#9BDAF9"/>
</linearGradient>
<linearGradient id="paint22_linear" x1="1153.81" y1="177.359" x2="1149.43" y2="398.216" gradientUnits="userSpaceOnUse">
<stop stop-color="#6C4BF2"/>
<stop offset="0.984375" stop-color="#9BDAF9"/>
</linearGradient>
<linearGradient id="paint23_linear" x1="1162.98" y1="-155.993" x2="1173.53" y2="578.007" gradientUnits="userSpaceOnUse">
<stop stop-color="white"/>
<stop offset="0.9999" stop-color="#BEE3FC"/>
<stop offset="1" stop-color="#8FCFF9"/>
</linearGradient>
<linearGradient id="paint24_linear" x1="1091.54" y1="659.473" x2="1184.11" y2="152.794" gradientUnits="userSpaceOnUse">
<stop stop-color="#6C4BF2"/>
<stop offset="1" stop-color="#9BDAF9"/>
</linearGradient>
<linearGradient id="paint25_linear" x1="1095.92" y1="660.273" x2="1188.49" y2="153.593" gradientUnits="userSpaceOnUse">
<stop stop-color="#6C4BF2"/>
<stop offset="1" stop-color="#9BDAF9"/>
</linearGradient>
<linearGradient id="paint26_linear" x1="1097.71" y1="660.601" x2="1190.29" y2="153.922" gradientUnits="userSpaceOnUse">
<stop stop-color="#6C4BF2"/>
<stop offset="1" stop-color="#9BDAF9"/>
</linearGradient>
<linearGradient id="paint27_linear" x1="1099.53" y1="660.933" x2="1192.1" y2="154.253" gradientUnits="userSpaceOnUse">
<stop stop-color="#6C4BF2"/>
<stop offset="1" stop-color="#9BDAF9"/>
</linearGradient>
<linearGradient id="paint28_linear" x1="1101.36" y1="661.267" x2="1193.93" y2="154.588" gradientUnits="userSpaceOnUse">
<stop stop-color="#6C4BF2"/>
<stop offset="1" stop-color="#9BDAF9"/>
</linearGradient>
<linearGradient id="paint29_linear" x1="1103.21" y1="661.605" x2="1195.78" y2="154.926" gradientUnits="userSpaceOnUse">
<stop stop-color="#6C4BF2"/>
<stop offset="1" stop-color="#9BDAF9"/>
</linearGradient>
<linearGradient id="paint30_linear" x1="1105.08" y1="661.948" x2="1197.65" y2="155.267" gradientUnits="userSpaceOnUse">
<stop stop-color="#6C4BF2"/>
<stop offset="1" stop-color="#9BDAF9"/>
</linearGradient>
<linearGradient id="paint31_linear" x1="1106.97" y1="662.293" x2="1199.54" y2="155.611" gradientUnits="userSpaceOnUse">
<stop stop-color="#6C4BF2"/>
<stop offset="1" stop-color="#9BDAF9"/>
</linearGradient>
<linearGradient id="paint32_linear" x1="1108.88" y1="662.641" x2="1201.45" y2="155.961" gradientUnits="userSpaceOnUse">
<stop stop-color="#6C4BF2"/>
<stop offset="1" stop-color="#9BDAF9"/>
</linearGradient>
<linearGradient id="paint33_linear" x1="1132.45" y1="211.546" x2="1167.41" y2="574.826" gradientUnits="userSpaceOnUse">
<stop stop-color="#6C4BF2"/>
<stop offset="1" stop-color="#9BDAF9"/>
</linearGradient>
<linearGradient id="paint34_linear" x1="1172.56" y1="432.568" x2="1172.28" y2="552.847" gradientUnits="userSpaceOnUse">
<stop stop-color="#6C4BF2"/>
<stop offset="1" stop-color="#9BDAF9"/>
</linearGradient>
<linearGradient id="paint35_linear" x1="1172.21" y1="322.609" x2="1345.52" y2="604.454" gradientUnits="userSpaceOnUse">
<stop stop-color="#6C4BF2"/>
<stop offset="1" stop-color="#9BDAF9"/>
</linearGradient>
<linearGradient id="paint36_linear" x1="996.514" y1="320.69" x2="1414" y2="347.603" gradientUnits="userSpaceOnUse">
<stop stop-color="#6C4BF2"/>
<stop offset="1" stop-color="#9BDAF9"/>
</linearGradient>
</defs>
</svg>
