<?xml version="1.0" encoding="utf-8"?>
<!-- Generator: Adobe Illustrator 21.0.2, SVG Export Plug-In . SVG Version: 6.00 Build 0)  -->
<svg version="1.1" id="Layer_1" xmlns="http://www.w3.org/2000/svg" xmlns:xlink="http://www.w3.org/1999/xlink" x="0px" y="0px"
	 viewBox="0 0 390 387" style="enable-background:new 0 0 390 387;" xml:space="preserve">
<style type="text/css">
	.st0{fill:#FFFFFF;}
</style>
<path class="st0" d="M284.5,235.7c15-23.6,23.8-51.6,23.8-81.7c0-84.1-68.1-152.3-152.1-152.3C72.1,1.7,4,69.9,4,154
	s68.1,152.3,152.1,152.3c30.5,0,58.9-9,82.7-24.4l6.9-4.8l108.6,108.6l33.7-34.3L279.5,242.8L284.5,235.7z M241.4,68.9
	c22.7,22.7,35.2,52.9,35.2,85s-12.5,62.3-35.2,85s-52.9,35.2-85,35.2s-62.3-12.5-85-35.2s-35.2-52.9-35.2-85s12.5-62.3,35.2-85
	s52.9-35.2,85-35.2C188.5,33.7,218.7,46.2,241.4,68.9z"/>
</svg>
